HIERARCHY
ROOT COM
{
  OFFSET 0.000000 0.000000 0.000000
  CHANNELS 6 Xposition Yposition Zposition Zrotation Xrotation Yrotation
  JOINT Spine
  {
    OFFSET 0.000000 10.031300 -3.647750
    CHANNELS 3 Zrotation Xrotation Yrotation
    JOINT Spine1
    {
      OFFSET 0.000000 14.268000 -0.012359
      CHANNELS 3 Zrotation Xrotation Yrotation
      JOINT Spine2
      {
        OFFSET 0.000000 15.553400 -0.011802
        CHANNELS 3 Zrotation Xrotation Yrotation
        JOINT Neck
        {
          OFFSET 0.000000 15.343700 -0.005077
          CHANNELS 3 Zrotation Xrotation Yrotation
          JOINT Head
          {
            OFFSET 0.000000 6.594300 0.000000
            CHANNELS 3 Zrotation Xrotation Yrotation
            End Site
            {
              OFFSET 0.000000 0.000000 0.000000
            }
          }
          JOINT Leftcollar
          {
            OFFSET 4.254290 -1.548100 1.990670
            CHANNELS 3 Zrotation Xrotation Yrotation
            JOINT LeftArm
            {
              OFFSET 16.825900 0.000000 0.000000
              CHANNELS 3 Zrotation Xrotation Yrotation
              JOINT LeftForeArm
              {
                OFFSET 0.000000 -28.058000 0.000000
                CHANNELS 3 Zrotation Xrotation Yrotation
                JOINT LeftHand
                {
                  OFFSET 0.000000 -24.725300 0.000000
                  CHANNELS 3 Zrotation Xrotation Yrotation
                  End Site
                  {
                    OFFSET -2.986150 -9.946190 -0.575321
                  }
                }
              }
            }
          }
          JOINT RightCollar
          {
            OFFSET -4.254280 -1.548090 1.990690
            CHANNELS 3 Zrotation Xrotation Yrotation
            JOINT RightArm
            {
              OFFSET -16.825900 0.000000 0.000000
              CHANNELS 3 Zrotation Xrotation Yrotation
              JOINT RightForeArm
              {
                OFFSET 0.000000 -28.058000 0.000000
                CHANNELS 3 Zrotation Xrotation Yrotation
                JOINT RightHand
                {
                  OFFSET 0.000000 -24.725300 0.000000
                  CHANNELS 3 Zrotation Xrotation Yrotation
                  End Site
                  {
                    OFFSET 2.986150 -9.946180 -0.575319
                  }
                }
              }
            }
          }
        }
      }
    }
  }
  JOINT LeftUpLeg
  {
    OFFSET 9.942750 0.000000 0.000000
    CHANNELS 3 Zrotation Xrotation Yrotation
    JOINT LeftLeg
    {
      OFFSET 0.000000 -45.973000 0.000000
      CHANNELS 3 Zrotation Xrotation Yrotation
      JOINT LeftFoot
      {
        OFFSET 0.000000 -43.163400 0.000000
        CHANNELS 3 Zrotation Xrotation Yrotation
        JOINT LeftToe
        {
          OFFSET 0.000000 0.000000 15.628600
          CHANNELS 3 Zrotation Xrotation Yrotation
          End Site
          {
            OFFSET 0.000000 0.000000 0.000000
          }
        }
      }
    }
  }
  JOINT RightUpLeg
  {
    OFFSET -9.942750 0.000000 0.000000
    CHANNELS 3 Zrotation Xrotation Yrotation
    JOINT RightLeg
    {
      OFFSET 0.000000 -45.973000 0.000000
      CHANNELS 3 Zrotation Xrotation Yrotation
      JOINT RightFoot
      {
        OFFSET 0.000000 -43.163400 0.000000
        CHANNELS 3 Zrotation Xrotation Yrotation
        JOINT RightToe
        {
          OFFSET 0.000000 0.000000 15.628600
          CHANNELS 3 Zrotation Xrotation Yrotation
          End Site
          {
            OFFSET 0.000000 0.000000 0.000000
          }
        }
      }
    }
  }
}
MOTION
Frames: 15
Frame Time: 0.033333
4.584890 90.416100 1.486380 359.955540 7.982050 324.109700 9.733590 354.006010 0.000000 360.000000 0.000000 336.581200 360.000000 360.000000 0.000000 360.000000 360.000000 360.000000 360.000000 360.000000 0.000000 360.000000 360.000000 0.000000 36.391100 343.528000 3.116740 0.000000 314.879400 0.000000 0.000000 0.000000 90.000000 360.000000 360.000000 0.000000 338.828900 27.161700 14.234600 0.000000 352.673650 0.000000 360.000000 360.000000 270.000000 9.358960 11.615100 39.403900 0.000000 28.048100 360.000000 0.000000 14.968700 339.131600 0.000000 0.000000 360.000000 13.160200 341.655700 321.223800 360.000000 3.543520 0.000000 0.000001 24.763500 26.440400 0.000000 0.000000 360.000000 
2.156340 91.007900 4.339440 359.244609 7.191130 323.024500 9.990890 354.760320 0.000000 0.000000 0.000000 338.612300 360.000000 360.000000 0.000000 360.000000 360.000000 0.000000 360.000000 360.000000 0.000000 360.000000 360.000000 0.000000 33.718600 344.988800 359.100844 0.000000 315.378600 0.000000 360.000000 360.000000 90.000000 360.000000 360.000000 0.000000 340.243500 26.471500 15.857500 0.000000 352.700880 360.000000 360.000000 360.000000 270.000000 12.276400 9.119420 34.088900 0.000000 38.202100 360.000000 0.000000 21.536000 343.532100 360.000000 0.000000 360.000000 13.208800 344.901100 319.734100 0.000000 4.736790 0.000000 360.000000 23.086800 29.001500 0.000000 0.000000 360.000000 
-0.018755 91.540100 6.877100 359.278109 5.955010 322.061700 9.242030 355.773580 360.000000 360.000000 360.000000 340.095700 360.000000 0.000000 0.000000 0.000000 0.000000 0.000000 0.000000 0.000000 0.000000 0.000000 0.000000 0.000000 31.403800 347.091500 355.917260 0.000000 315.806300 0.000000 0.000000 0.000000 90.000000 0.000000 0.000000 0.000000 341.352800 24.501700 19.545100 0.000000 351.522960 0.000000 360.000000 360.000000 270.000000 13.792200 4.800360 28.286800 360.000000 48.073100 0.000000 360.000000 28.588000 347.725600 0.000000 360.000000 360.000000 12.495900 348.184600 316.784400 0.000000 4.895260 0.000000 0.000000 21.842100 32.840500 0.000000 0.000000 360.000000 
-2.128760 91.897100 9.097870 359.337796 5.055050 321.227100 8.384740 356.564240 0.000000 360.000000 0.000000 341.301200 0.000000 0.000000 0.000000 360.000000 0.000000 360.000000 0.000000 360.000000 360.000000 0.000000 360.000000 360.000000 29.614800 349.531600 352.585170 0.000000 317.125300 0.000000 0.000000 0.000000 90.000000 0.000000 360.000000 360.000000 342.012900 21.575900 24.409100 0.000000 349.176300 360.000000 360.000000 0.000000 270.000000 14.870100 0.193205 24.099300 0.000000 55.940100 360.000000 360.000000 26.142700 351.642590 0.000000 0.000000 0.000000 12.376900 351.213930 316.668500 360.000000 4.185470 0.000000 360.000000 20.481600 34.010600 360.000000 360.000000 0.000000 
-4.217520 92.188200 11.239700 359.542397 3.903510 319.602700 7.266190 357.537610 0.000000 0.000000 360.000000 343.044500 0.000000 360.000000 0.000000 0.000000 360.000000 0.000000 0.000000 360.000000 0.000000 0.000000 360.000000 0.000000 27.891900 352.248660 349.571300 360.000000 319.168000 0.000000 360.000000 0.000000 90.000000 0.000000 360.000000 0.000000 342.123700 17.807800 28.677900 360.000000 346.022500 0.000000 0.000000 0.000000 270.000000 15.309000 356.192620 21.264800 0.000000 60.278400 360.000000 360.000000 22.301300 354.868760 0.000000 360.000000 360.000000 12.023000 354.256820 318.427400 360.000000 3.659170 0.000000 0.000001 18.738300 33.791000 0.000000 0.000000 360.000000 
-6.214250 92.364000 13.229400 359.902058 2.840930 317.639700 6.121320 358.499490 0.000000 360.000000 0.000000 344.610500 0.000000 0.000000 0.000000 360.000000 0.000000 360.000000 0.000000 0.000000 0.000000 0.000000 0.000000 0.000000 26.472900 355.780320 346.991800 360.000000 321.110700 0.000000 360.000000 360.000000 90.000000 0.000000 0.000000 0.000000 341.795300 13.034600 31.273000 360.000000 342.052400 360.000000 360.000000 0.000000 270.000000 15.109400 352.111670 18.483900 0.000000 61.906700 360.000000 360.000000 19.491000 357.997230 0.000000 360.000000 0.000000 11.294700 356.761380 319.634400 0.000000 3.836990 0.000000 359.999999 17.161800 34.319500 0.000000 360.000000 0.000000 
-8.156810 92.421100 15.155400 0.230579 2.098300 315.510500 5.230970 359.280288 0.000000 0.000000 0.000000 346.304900 0.000000 360.000000 0.000000 0.000000 360.000000 0.000000 0.000000 0.000000 0.000000 0.000000 0.000000 0.000000 24.965800 359.248215 344.808200 360.000000 323.935200 0.000000 0.000000 0.000000 90.000000 0.000000 0.000000 0.000000 341.225500 7.974290 32.408700 0.000000 337.612500 0.000000 0.000000 0.000000 270.000000 14.849600 348.092600 15.898800 0.000000 61.189600 360.000000 360.000000 16.737000 0.894832 360.000000 0.000000 360.000000 10.499400 358.765450 320.283600 0.000000 4.543950 0.000000 359.999999 15.567600 35.622700 0.000000 0.000000 0.000000 
-10.072900 92.424600 17.015700 0.485282 1.398760 313.549000 4.408250 0.180999 0.000000 0.000000 360.000000 347.615500 0.000000 360.000000 360.000000 360.000000 360.000000 0.000000 360.000000 360.000000 0.000000 360.000000 360.000000 0.000000 23.445900 2.781720 343.087100 360.000000 327.409300 360.000000 0.000000 360.000000 90.000000 360.000000 360.000000 0.000000 340.367500 2.813400 32.843200 360.000000 332.626400 360.000000 360.000000 0.000000 270.000000 14.345600 344.511000 13.563100 0.000000 58.103600 360.000000 360.000000 14.144900 2.496290 0.000000 0.000000 360.000000 9.556870 0.554272 321.499000 0.000000 5.603930 360.000000 359.999999 13.957200 36.342700 360.000000 0.000000 360.000000 
-11.893300 92.359600 18.844600 1.306610 1.139550 311.602600 3.520700 0.397525 0.000000 360.000000 360.000000 349.199600 0.000000 0.000000 360.000000 0.000000 360.000000 360.000000 360.000000 360.000000 360.000000 360.000000 360.000000 360.000000 21.888900 5.832180 341.547700 360.000000 331.389300 360.000000 360.000000 0.000000 90.000000 360.000000 360.000000 360.000000 339.371000 358.005900 32.050000 360.000000 327.360500 360.000000 360.000000 360.000000 270.000000 13.607000 340.946700 12.537900 0.000000 53.004800 360.000000 360.000000 12.374100 4.266250 0.000000 0.000000 0.000000 8.560630 1.477030 322.921800 0.000000 6.604400 360.000000 360.000000 11.729200 36.358400 360.000000 0.000000 0.000000 
-13.772100 92.280900 20.704900 1.927770 1.063910 309.839800 2.933150 0.639205 0.000000 0.000000 360.000000 350.572270 0.000000 360.000000 360.000000 360.000000 360.000000 0.000000 360.000000 0.000000 0.000000 360.000000 0.000000 0.000000 20.521400 8.884760 339.667100 0.000000 335.239500 0.000000 360.000000 0.000000 90.000000 360.000000 0.000000 0.000000 338.198000 353.407640 31.151200 360.000000 322.556100 0.000000 360.000000 360.000000 270.000000 12.992300 338.042200 12.725400 360.000000 46.399000 360.000000 360.000000 11.117500 4.938230 0.000000 0.000000 0.000000 7.723810 2.334520 325.627400 360.000000 7.796430 0.000000 359.999999 10.197700 35.351900 0.000000 0.000000 360.000000 
-15.751600 92.145900 22.736400 2.574390 0.927140 308.372300 2.268620 0.640973 0.000000 360.000000 0.000000 351.510950 360.000000 0.000000 0.000000 360.000000 0.000000 0.000000 360.000000 360.000000 0.000000 360.000000 360.000000 0.000000 19.162400 11.923600 338.054200 360.000000 339.056600 0.000000 360.000000 360.000000 90.000000 360.000000 360.000000 0.000000 336.695500 349.127600 30.589400 0.000000 318.299700 0.000000 360.000000 360.000000 270.000000 12.016800 336.102000 14.719000 360.000000 38.119000 360.000000 0.000000 11.501400 3.684390 0.000000 360.000000 360.000000 6.790420 3.344700 327.936500 0.000000 8.773320 360.000000 360.000000 8.626170 34.426500 360.000000 0.000000 360.000000 
-17.854900 91.881700 24.760600 3.334520 1.365170 307.000400 2.023810 0.090893 0.000000 0.000000 360.000000 352.534230 360.000000 0.000000 360.000000 360.000000 360.000000 360.000000 360.000000 0.000000 0.000000 360.000000 0.000000 0.000000 17.867000 14.775200 338.133200 360.000000 342.149100 0.000000 360.000000 0.000000 90.000000 360.000000 0.000000 0.000000 335.252800 345.465800 29.349200 360.000000 314.690200 0.000000 0.000000 360.000000 270.000000 11.120500 334.601200 19.268200 360.000000 28.444700 0.000000 360.000000 13.253400 359.299561 360.000000 360.000000 360.000000 6.341250 4.203890 329.399600 0.000000 9.165390 360.000000 0.000000 7.400830 34.428400 0.000000 0.000000 0.000000 
-20.083000 91.470200 26.939500 4.072190 2.091590 305.506000 2.202760 359.267742 0.000000 360.000000 0.000000 353.749450 0.000000 0.000000 0.000000 0.000000 0.000000 0.000000 0.000000 0.000000 0.000000 0.000000 0.000000 0.000000 16.721800 17.394000 338.504900 360.000000 344.641700 360.000000 0.000000 0.000000 90.000000 0.000000 0.000000 0.000000 333.648100 342.426300 28.185500 0.000000 311.820300 0.000000 360.000000 0.000000 270.000000 9.760410 333.883500 26.511300 0.000000 17.743200 0.000000 360.000000 15.417500 350.217550 360.000000 360.000000 360.000000 5.985580 5.144270 329.747000 360.000000 9.381380 360.000000 0.000000 5.989030 35.450300 0.000000 0.000000 0.000000 
-22.380300 90.881300 29.129400 4.926760 3.229070 303.444500 2.793830 358.096860 360.000000 0.000000 0.000000 355.431900 0.000000 0.000000 0.000000 0.000000 0.000000 0.000000 360.000000 360.000000 0.000000 360.000000 360.000000 0.000000 15.812300 19.739400 338.933000 0.000000 346.313000 360.000000 360.000000 0.000000 90.000000 360.000000 360.000000 0.000000 332.033600 339.861900 26.861600 0.000000 309.795000 0.000000 360.000000 360.000000 270.000000 8.226940 332.872000 34.025200 0.000000 8.366970 0.000000 360.000000 17.230600 337.689700 360.000000 0.000000 360.000000 5.749860 5.639910 330.802100 0.000000 9.883210 360.000000 0.000000 4.976860 36.501400 0.000000 0.000000 0.000000 
-24.809100 90.278100 31.510300 5.722610 3.915170 301.492000 3.148280 357.164450 360.000000 0.000000 360.000000 356.687880 360.000000 0.000000 360.000000 360.000000 360.000000 360.000000 360.000000 360.000000 360.000000 360.000000 360.000000 360.000000 14.777800 21.426600 340.924300 360.000000 348.044000 0.000000 0.000000 0.000000 90.000000 360.000000 360.000000 360.000000 330.659300 337.787500 26.074400 0.000000 308.523100 0.000000 360.000000 0.000000 270.000000 6.257770 332.173200 36.208200 0.000000 2.172260 0.000000 360.000000 16.686400 327.975000 360.000000 360.000000 360.000000 5.037890 6.526330 331.013700 360.000000 10.507900 0.000000 0.000000 4.249150 38.170500 360.000000 0.000000 360.000000 
